<?xml version="1.0" encoding="UTF-8" standalone="no"?>
<!DOCTYPE svg PUBLIC "-//W3C//DTD SVG 1.1//EN" "http://www.w3.org/Graphics/SVG/1.1/DTD/svg11.dtd">
<svg width="100%" height="100%" viewBox="0 0 512 512" version="1.1" xmlns="http://www.w3.org/2000/svg" xmlns:xlink="http://www.w3.org/1999/xlink" xml:space="preserve" xmlns:serif="http://www.serif.com/" style="fill-rule:evenodd;clip-rule:evenodd;stroke-linejoin:round;stroke-miterlimit:2;">
    <g transform="matrix(0.979449,-0.204618,0.204496,0.978867,-47.09,57.7921)">
        <path d="M478.21,334.093L336,256L478.21,177.907C490.005,171.43 494.171,156.523 487.442,144.87L467.962,111.129C461.234,99.476 446.242,95.63 434.735,102.606L296,186.718L299.475,24.514C299.763,11.061 288.937,0 275.48,0L236.52,0C223.064,0 212.237,11.061 212.526,24.514L216,186.718L77.265,102.607C65.759,95.631 50.766,99.477 44.038,111.13L24.558,144.871C17.83,156.524 21.996,171.431 33.791,177.908L176,256L33.79,334.093C21.995,340.57 17.829,355.477 24.558,367.13L44.038,400.871C50.766,412.524 65.759,416.37 77.265,409.394L216,325.282L212.525,487.486C212.237,500.939 223.064,512 236.52,512L275.481,512C288.937,512 299.764,500.939 299.476,487.486L296,325.282L434.735,409.393C446.241,416.369 461.234,412.523 467.962,400.87L487.442,367.129C494.17,355.476 490.005,340.57 478.21,334.093Z" style="fill:rgb(254,173,254);fill-rule:nonzero;"/>
    </g>
</svg>
