<svg viewBox="0 0 512 512" xmlns="http://www.w3.org/2000/svg" xml:space="preserve" style="fill-rule:evenodd;clip-rule:evenodd;stroke-linejoin:round;stroke-miterlimit:2"><path d="m478 334-142-78 142-78c12-7 16-21 9-33l-19-34c-7-12-22-15-33-8l-139 84 3-162c1-14-10-25-24-25h-38c-14 0-25 11-24 25l3 162-139-84c-11-7-26-4-33 8l-19 34c-7 12-3 26 9 33l142 78-142 78c-12 7-16 21-9 33l19 34c7 12 22 15 33 8l139-84-3 162c-1 14 10 25 24 25h38c14 0 25-11 24-25l-3-162 139 84c11 7 26 4 33-8l19-34c7-12 3-26-9-33Z" style="fill:#feadfe;fill-rule:nonzero" transform="matrix(.97945 -.20462 .2045 .97887 -47 58)"/></svg>
