<svg viewBox="0 0 512 512" xmlns="http://www.w3.org/2000/svg" xml:space="preserve" style="fill-rule:evenodd;clip-rule:evenodd;stroke-linejoin:round;stroke-miterlimit:2"><path d="m490 287-156-47 124-106c10-9 11-24 2-34l-26-29c-9-10-24-11-34-2L281 180 251 21c-2-14-15-22-28-20l-38 8c-14 3-22 16-19 29l37 158-153-54c-13-4-27 3-31 16L7 195c-5 12 3 26 15 30l156 47L54 378c-10 9-11 24-2 34l26 29c9 10 24 11 34 2l119-111 30 159c2 14 15 22 28 20l38-8c14-3 22-16 19-29l-37-158 153 54c13 4 27-3 31-16l12-37c5-12-3-26-15-30Z" style="fill-rule:nonzero"/></svg>
